<svg width="70" height="71" viewBox="0 0 70 71" fill="none" xmlns="http://www.w3.org/2000/svg">
<path d="M53.3333 63.8326H6.66667V17.2701H36.6667V10.6183H6.66667C3 10.6183 0 13.6116 0 17.2701V63.8326C0 67.4911 3 70.4844 6.66667 70.4844H53.3333C57 70.4844 60 67.4911 60 63.8326V33.8996H53.3333V63.8326ZM27.3667 53.2895L20.8333 45.4404L11.6667 57.1808H48.3333L36.5333 41.5159L27.3667 53.2895ZM60 10.6183V0.640625H53.3333V10.6183H43.3333C43.3667 10.6516 43.3333 17.2701 43.3333 17.2701H53.3333V27.2145C53.3667 27.2478 60 27.2145 60 27.2145V17.2701H70V10.6183H60Z" fill="#C4C4C4"/>
</svg>
