<svg width="15" height="16" viewBox="0 0 15 16" fill="none" xmlns="http://www.w3.org/2000/svg">
<g clip-path="url(#clip0_1_1925)">
<path d="M7.5 0.910889C3.35766 0.910889 0 4.26106 0 8.39417C0 12.5273 3.35766 15.8774 7.5 15.8774C11.6423 15.8774 15 12.5273 15 8.39417C15 6.40948 14.2098 4.50608 12.8033 3.10269C11.3968 1.6993 9.48912 0.910889 7.5 0.910889V0.910889ZM7.5 14.0066C4.39359 14.0066 1.875 11.4936 1.875 8.39417C1.875 5.29469 4.39359 2.78171 7.5 2.78171C10.6064 2.78171 13.125 5.29469 13.125 8.39417C13.1217 11.4922 10.605 14.0033 7.5 14.0066Z" fill="white"/>
<path d="M10.0514 5.86107L10.0387 5.84845C9.95604 5.76586 9.85783 5.70034 9.74973 5.65564C9.64163 5.61094 9.52576 5.58794 9.40875 5.58794C9.29173 5.58794 9.17587 5.61094 9.06777 5.65564C8.95967 5.70034 8.86146 5.76586 8.77875 5.84845L7.5 7.12434L6.22125 5.84845C6.13854 5.76586 6.04033 5.70034 5.93223 5.65564C5.82413 5.61094 5.70826 5.58794 5.59125 5.58794C5.47423 5.58794 5.35837 5.61094 5.25027 5.65564C5.14217 5.70034 5.04396 5.76586 4.96125 5.84845L4.94859 5.86107C4.86582 5.9436 4.80016 6.04159 4.75536 6.14945C4.71056 6.25731 4.6875 6.37292 4.6875 6.48967C4.6875 6.60642 4.71056 6.72203 4.75536 6.82989C4.80016 6.93775 4.86582 7.03574 4.94859 7.11826L6.22734 8.39416L4.94859 9.67006C4.86582 9.75259 4.80016 9.85058 4.75536 9.95844C4.71056 10.0663 4.6875 10.1819 4.6875 10.2987C4.6875 10.4154 4.71056 10.531 4.75536 10.6389C4.80016 10.7467 4.86582 10.8447 4.94859 10.9273L4.96125 10.9399C5.04396 11.0225 5.14217 11.088 5.25027 11.1327C5.35837 11.1774 5.47423 11.2004 5.59125 11.2004C5.70826 11.2004 5.82413 11.1774 5.93223 11.1327C6.04033 11.088 6.13854 11.0225 6.22125 10.9399L7.5 9.66398L8.77875 10.9399C8.86146 11.0225 8.95967 11.088 9.06777 11.1327C9.17587 11.1774 9.29173 11.2004 9.40875 11.2004C9.52576 11.2004 9.64163 11.1774 9.74973 11.1327C9.85783 11.088 9.95604 11.0225 10.0387 10.9399L10.0514 10.9273C10.1342 10.8447 10.1998 10.7467 10.2446 10.6389C10.2894 10.531 10.3125 10.4154 10.3125 10.2987C10.3125 10.1819 10.2894 10.0663 10.2446 9.95844C10.1998 9.85058 10.1342 9.75259 10.0514 9.67006L8.77265 8.39416L10.0514 7.11826C10.1342 7.03574 10.1998 6.93775 10.2446 6.82989C10.2894 6.72203 10.3125 6.60642 10.3125 6.48967C10.3125 6.37292 10.2894 6.25731 10.2446 6.14945C10.1998 6.04159 10.1342 5.9436 10.0514 5.86107Z" fill="white"/>
</g>
<defs>
<clipPath id="clip0_1_1925">
<rect width="15" height="14.9666" fill="white" transform="translate(0 0.910889)"/>
</clipPath>
</defs>
</svg>
